<svg version="1.1" xmlns="http://www.w3.org/2000/svg" xmlns:xlink="http://www.w3.org/1999/xlink" width="1168.73539" height="390.73151" viewBox="270.07219,196.05537,1168.73539,390.73151"><g id="document" fill="#ffffff" fill-rule="nonzero" stroke="#000000" stroke-width="0" stroke-linecap="butt" stroke-linejoin="miter" stroke-miterlimit="10" stroke-dasharray="" stroke-dashoffset="0" font-family="none" font-weight="none" font-size="none" text-anchor="none" style="mix-blend-mode: normal"><rect x="165.0431" y="270.39474" transform="scale(1.65714,0.76)" width="700" height="500" id="Shape 1 1" vector-effect="non-scaling-stroke"/></g><g fill="none" fill-rule="none" stroke="none" stroke-width="none" stroke-linecap="butt" stroke-linejoin="miter" stroke-miterlimit="none" stroke-dasharray="" stroke-dashoffset="0" font-family="none" font-weight="none" font-size="none" text-anchor="none" style="mix-blend-mode: normal"><g id="stage"><g id="layer1 1"><rect x="126.27867" y="274.19948" transform="scale(2.1387,0.71501)" width="546.47" height="546.47" id="Shape 1" fill="#1e3a8a" fill-rule="nonzero" stroke="none" stroke-width="1" stroke-miterlimit="10"/><path d="M656.35588,357.85106l35.96835,6.56535l-7.97587,10.77127l11.72017,7.25779l-16.70829,23.83785l7.91176,-23.05565z" id="Path 1" fill="#ffffff" fill-rule="nonzero" stroke="none" stroke-width="1" stroke-miterlimit="10"/><path d="M590.68959,304.16139l38.21237,19.49087c5.83444,3.94947 15.28495,3.2442 24.6457,6.68075c18.70867,6.88592 44.22633,25.73565 44.22633,25.73565l33.78845,32.90367l-1.12842,0.4488l-34.72453,-30.26215c0,0 -36.68644,-20.36283 -42.31571,-22.49144c-7.84764,-2.93645 -22.27345,-2.7954 -30.35191,-8.21951l-30.00569,-15.7081c-5.8795,5.11369 -8.54576,12.99974 -6.97568,20.63212c-30.77506,0 -83.84922,0.24364 -103.86584,22.63249c24.77393,-32.53181 70.52619,-31.89066 95.24882,-31.89066c1.42335,-8.61702 5.43693,-15.28495 13.2461,-19.9525z" id="Path 1" fill="#ffffff" fill-rule="nonzero" stroke="none" stroke-width="1" stroke-miterlimit="10"/><path d="M734.69123,391.89597l-12.05357,17.88801l1.83368,-11.36113l-14.95155,-8.62984z" id="Path 1" fill="#ffffff" fill-rule="nonzero" stroke="none" stroke-width="1" stroke-miterlimit="10"/><path d="M623.41374,428.24902l-28.82598,-37.81486l40.75131,32.83956c17.95212,-5.32152 42.79016,-4.59061 66.16638,7.96305l18.90102,-14.10524l-16.51595,22.54273c-69.70552,-26.74866 -99.18546,14.38734 -62.97347,33.532c-39.34079,-13.36151 -37.27629,-33.78845 -17.50332,-44.95724z" id="Path 1" fill="#ffffff" fill-rule="nonzero" stroke="none" stroke-width="1" stroke-miterlimit="10"/><path d="M769.5064,310.20464c0,8.07845 1.59859,13.97273 4.79578,17.68284c2.93671,3.61196 7.37366,5.66961 12.02792,5.57798c4.62625,0.0599 9.0339,-1.96499 12.00227,-5.51387c3.23138,-3.71865 4.84707,-9.5189 4.84707,-17.40073c0,-7.53989 -1.67553,-13.22473 -5.02659,-17.05451c-2.92292,-3.62683 -7.33141,-5.73442 -11.98945,-5.73186c-4.6001,-0.03337 -8.95815,2.05812 -11.80993,5.66774c-3.23138,3.75285 -4.84707,9.34365 -4.84707,16.77241zM760.91503,347.19883l10.09166,1.51311c0.18237,2.67069 1.4581,5.14794 3.52631,6.84745c2.56459,1.92344 6.0909,2.89799 10.55328,2.89799c4.79578,0 8.51443,-0.97454 11.13031,-2.89799c2.66452,-2.00694 4.54264,-4.88311 5.3087,-8.12975c0.53856,-2.11579 0.7822,-6.59099 0.74373,-13.38715c-4.088,5.18576 -10.34894,8.18362 -16.95193,8.11692c-8.4204,0 -14.93873,-3.05186 -19.55499,-9.15558c-4.69445,-6.34903 -7.13174,-14.08517 -6.92439,-21.97852c-0.08266,-5.59361 0.98219,-11.1448 3.1288,-16.31078c1.85988,-4.6655 5.05327,-8.67954 9.18123,-11.54065c4.20838,-2.75481 9.15365,-4.16774 14.18217,-4.05205c7.05217,-0.11983 13.73194,3.15803 17.95212,8.80936v-7.42448h9.56592v53.24086c0,9.59156 -0.97882,16.37917 -2.93645,20.36283c-1.98095,4.07397 -5.21717,7.40458 -9.23252,9.5018c-4.79093,2.46378 -10.13133,3.66426 -15.51576,3.48784c-7.30908,0 -13.21191,-1.66271 -17.70848,-4.98812c-4.49658,-3.32542 -6.67648,-8.29644 -6.5397,-14.91308z" id="CompoundPath 1" fill="#ffffff" fill-rule="evenodd" stroke="none" stroke-width="1" stroke-miterlimit="10"/><path d="M828.40218,342.15941v-61.55013h9.3351v9.3351c2.38507,-4.3598 4.57779,-7.24496 6.57817,-8.62984c1.96039,-1.37411 4.2996,-2.10456 6.69358,-2.09014c3.80206,0.09035 7.50089,1.25512 10.66869,3.35961l-3.53913,9.56592c-2.2826,-1.42904 -4.91139,-2.20926 -7.60401,-2.25684c-2.21742,-0.02044 -4.37535,0.71696 -6.11654,2.09014c-1.85697,1.43323 -3.20531,3.42427 -3.84688,5.68056c-1.18909,3.94984 -1.77275,8.05706 -1.7311,12.1818v32.31382z" id="Path 1" fill="#ffffff" fill-rule="evenodd" stroke="none" stroke-width="1" stroke-miterlimit="10"/><path d="M907.99418,342.15941v-9.10429c-4.20718,6.63474 -11.58567,10.57707 -19.43958,10.38658c-3.49063,0.02717 -6.94744,-0.68517 -10.14295,-2.09014c-2.74366,-1.10241 -5.15241,-2.90124 -6.9885,-5.21894c-1.58614,-2.341 -2.665,-4.98793 -3.16727,-7.7707c-0.50648,-3.22249 -0.7168,-6.48459 -0.62832,-9.74544v-38.10979h10.37376v34.16032c-0.12018,3.68347 0.09442,7.37025 0.64115,11.01491c0.55581,2.59709 2.03126,4.9059 4.15463,6.50123c2.28863,1.60733 5.03999,2.42238 7.83482,2.32095c3.08497,0.00859 6.1151,-0.8154 8.77089,-2.38507c2.60676,-1.47166 4.64008,-3.7806 5.77032,-6.55252c1.15406,-2.78685 1.7311,-6.80471 1.7311,-12.05357v-33.00625h10.37376v61.55013z" id="Path 1" fill="#ffffff" fill-rule="evenodd" stroke="none" stroke-width="1" stroke-miterlimit="10"/><path d="M942.94953,311.65363c0,7.92458 1.59432,13.78039 4.78296,17.56743c2.7635,3.57541 7.02178,5.67617 11.54065,5.69339c4.63588,-0.01658 9.0023,-2.18085 11.82275,-5.86008c3.29977,-3.94947 4.95393,-10.04036 4.96248,-18.27269c0,-7.84764 -1.61569,-13.72482 -4.84707,-17.63155c-2.69602,-3.64365 -6.94415,-5.8128 -11.47653,-5.86008c-4.41964,0 -8.34346,2.09014 -11.77146,6.27042c-3.428,4.18028 -5.09926,10.21134 -5.01377,18.09317zM933.55031,365.70233v-85.19563h9.46333v8.00152c1.95666,-2.87748 4.53861,-5.27531 7.55271,-7.01415c3.15487,-1.66965 6.69076,-2.48732 10.25835,-2.37224c4.92148,-0.09329 9.7538,1.32061 13.84878,4.05205c4.10566,2.85309 7.25961,6.87371 9.053,11.54065c2.08122,5.13818 3.11867,10.63928 3.05186,16.18255c0.09098,5.85748 -1.06744,11.66708 -3.39808,17.04169c-2.01552,4.77466 -5.43711,8.82242 -9.80955,11.60476c-4.04844,2.56664 -8.74759,3.91943 -13.54103,3.89817c-3.25082,0.05283 -6.46357,-0.70519 -9.34793,-2.20555c-2.61297,-1.3626 -4.9108,-3.25854 -6.74487,-5.56516v29.98004z" id="CompoundPath 1" fill="#ffffff" fill-rule="evenodd" stroke="none" stroke-width="1" stroke-miterlimit="10"/><path d="M1006.05123,311.30741c0,7.88184 1.70973,13.79749 5.12918,17.74695c3.20459,3.80227 7.95385,5.95546 12.92553,5.86008c4.95206,0.07446 9.66971,-2.10509 12.82294,-5.9242c3.41945,-3.94092 5.12918,-9.9506 5.12918,-18.02906c0,-7.61683 -1.70973,-13.3786 -5.12918,-17.28533c-3.14987,-3.82194 -7.87104,-5.9984 -12.82294,-5.91138c-4.96994,-0.10039 -9.7196,2.04826 -12.92553,5.84726c-3.41945,3.91527 -5.12918,9.81383 -5.12918,17.69566zM995.38254,311.30741c0,-11.41242 3.15444,-19.86274 9.46333,-25.35096c5.34363,-4.58193 12.19772,-7.01741 19.23441,-6.83463c8.4204,0 15.30205,2.78258 20.64494,8.34774c5.34289,5.56516 8.01861,13.22045 8.02716,22.96589c0,7.92458 -1.19253,14.16935 -3.5776,18.73432c-2.30374,4.47829 -5.90606,8.15658 -10.33529,10.55328c-4.50581,2.49574 -9.58306,3.77721 -14.73356,3.71865c-8.54863,0 -15.49011,-2.76548 -20.82446,-8.29644c-5.33434,-5.53096 -7.98014,-13.47691 -7.9374,-23.83785z" id="CompoundPath 1" fill="#ffffff" fill-rule="evenodd" stroke="none" stroke-width="1" stroke-miterlimit="10"/><path d="M1081.25779,310.25593c0,6.92439 1.36778,12.05357 4.10334,15.38753c2.373,3.11041 6.064,4.93219 9.97625,4.92401c3.66711,0.0507 7.14607,-1.61996 9.39922,-4.51368c2.56459,-3.06468 3.7443,-8.03999 3.7443,-14.96437c0,-6.41147 -1.28229,-11.24572 -3.84688,-14.38734c-2.27764,-2.98315 -5.8256,-4.72151 -9.57874,-4.6932c-3.85799,-0.09665 -7.53931,1.61593 -9.9506,4.62908c-2.56459,3.05186 -3.84688,7.59118 -3.84688,13.61797zM1065.22911,280.5067h15.10543v9.07864c1.99895,-3.12574 4.73292,-5.71442 7.96305,-7.53989c3.38378,-1.94497 7.22768,-2.9458 11.13031,-2.89799c6.99665,-0.06054 13.64969,3.02821 18.11882,8.41185c4.94966,5.6079 7.42876,13.41707 7.43731,23.42752c0,10.25835 -2.50047,18.25987 -7.50142,24.00455c-4.5015,5.43264 -11.21796,8.53871 -18.27269,8.45032c-3.19207,0.0408 -6.35084,-0.65238 -9.23252,-2.02602c-3.25407,-1.78768 -6.16338,-4.14118 -8.59137,-6.95004v31.03152h-16.2082z" id="CompoundPath 1" fill="#ffffff" fill-rule="evenodd" stroke="none" stroke-width="1" stroke-miterlimit="10"/><path d="M1178.10948,342.15941v-9.2197c-2.23201,3.29836 -5.26845,5.9729 -8.82218,7.7707c-3.544,1.83684 -7.48504,2.77476 -11.47653,2.73129c-3.86699,0.06232 -7.68411,-0.8787 -11.07902,-2.73129c-3.16086,-1.6952 -5.65878,-4.40542 -7.09109,-7.69377c-1.46182,-3.28267 -2.19272,-7.822 -2.19272,-13.61797v-38.98175h16.2082v28.40282c0,8.66831 0.28638,13.98556 0.85914,15.95174c0.56574,1.86389 1.72244,3.49316 3.2955,4.64191c1.77381,1.17741 3.87384,1.76523 6.00114,1.67981c2.65228,0.03103 5.24954,-0.7571 7.43731,-2.25684c2.0583,-1.38091 3.63229,-3.37194 4.50085,-5.69339c0.80357,-2.27394 1.20536,-7.83054 1.20536,-16.66983v-25.96646h16.2082v61.55013z" id="Path 1" fill="#ffffff" fill-rule="evenodd" stroke="none" stroke-width="1" stroke-miterlimit="10"/><path d="M1208.74348,280.5067h14.93873v8.41185c5.33434,-6.53115 11.69452,-9.79673 19.08054,-9.79673c3.57331,-0.09539 7.10953,0.74446 10.25835,2.43636c3.00399,1.74397 5.46024,4.29349 7.09109,7.36037c2.37107,-3.02046 5.33383,-5.52506 8.70678,-7.36037c3.07562,-1.61709 6.50146,-2.45374 9.97625,-2.43636c3.99073,-0.13001 7.94121,0.83211 11.42524,2.78258c3.1435,1.84895 5.59393,4.67775 6.97568,8.05281c1.1156,2.64153 1.66698,6.88592 1.67981,12.75883v39.44337h-16.29796v-35.26309c0,-6.10372 -0.55994,-10.04891 -1.67981,-11.83558c-1.51165,-2.31658 -4.15054,-3.64337 -6.91157,-3.47502c-2.30339,0.00756 -4.54618,0.73871 -6.41147,2.09014c-2.05615,1.52915 -3.5449,3.69912 -4.23157,6.16784c-0.88478,2.66717 -1.28229,6.91157 -1.28229,12.70754v29.60817h-16.29796v-33.8141c0,-5.98831 -0.2821,-9.86084 -0.85914,-11.54065c-0.45691,-1.54368 -1.40733,-2.89499 -2.70564,-3.84688c-1.4629,-0.93002 -3.18036,-1.37844 -4.91119,-1.28229c-2.40213,-0.02715 -4.7553,0.6797 -6.74487,2.02602c-2.05113,1.41939 -3.57148,3.48111 -4.32133,5.86008c-0.85914,2.56459 -1.28229,6.78334 -1.28229,12.70754v29.89028h-16.19538z" id="Path 1" fill="#ffffff" fill-rule="evenodd" stroke="none" stroke-width="1" stroke-miterlimit="10"/><path d="M1348.78284,312.52559c-3.24295,0.99477 -6.53409,1.82505 -9.86084,2.48765c-4.49658,0.97454 -7.43731,1.92344 -8.82218,2.84669c-1.9743,1.24353 -3.17437,3.4114 -3.18009,5.74468c-0.00982,2.24248 0.92034,4.3865 2.56459,5.91138c1.71266,1.66236 4.0258,2.55986 6.41147,2.48765c3.02748,-0.03322 5.96199,-1.0504 8.36056,-2.89799c1.84699,-1.316 3.20104,-3.21167 3.84688,-5.38564c0.52851,-2.61515 0.73948,-5.28452 0.62832,-7.95022zM1327.09925,299.30513l-14.70792,-2.66717c1.65416,-5.96267 4.48803,-10.36094 8.52726,-13.23328c4.03923,-2.87234 10.04036,-4.28286 17.95212,-4.28286c7.23214,0 12.6135,0.85486 16.14409,2.56459c3.12261,1.32743 5.73486,3.62496 7.45013,6.55252c1.46182,2.56459 2.1799,7.4886 2.19272,14.56686l-0.17952,19.01642c-0.10298,4.01525 0.15019,8.03173 0.75655,12.00227c0.63668,2.85439 1.62294,5.61937 2.93645,8.23233h-15.99021c-0.42316,-1.07713 -0.93607,-2.68 -1.55158,-4.8086c-0.26928,-0.96172 -0.46163,-1.60287 -0.57703,-1.91062c-2.56093,2.56118 -5.57377,4.62625 -8.8863,6.0909c-3.1906,1.35624 -6.62483,2.0457 -10.09166,2.02602c-6.30889,0 -11.28846,-1.70973 -14.93873,-5.12918c-3.58945,-3.3715 -5.56381,-8.11837 -5.4241,-13.04093c-0.05745,-3.26661 0.80456,-6.48359 2.48765,-9.28381c1.6345,-2.72803 4.04534,-4.90672 6.92439,-6.2576c4.12448,-1.82252 8.46327,-3.11511 12.9127,-3.84688c7.57408,-1.42762 12.82294,-2.76121 15.74657,-4.00076v-1.62851c0,-3.1288 -0.76938,-5.35144 -2.30813,-6.66793c-1.53875,-1.31649 -4.45811,-1.98756 -8.75807,-2.0132c-2.37561,-0.14112 -4.73538,0.46901 -6.74487,1.74392c-1.8806,1.54087 -3.23421,3.62954 -3.87253,5.97549z" id="CompoundPath 1" fill="#ffffff" fill-rule="evenodd" stroke="none" stroke-width="1" stroke-miterlimit="10"/><path d="M747.01496,393.88716h621.66909" id="Path 1" fill="none" fill-rule="nonzero" stroke="#ffffff" stroke-width="0.63" stroke-miterlimit="3.86"/><path d="M798.87094,471.49161h25.41507l-7.822,-20.87575c-2.40216,-6.35163 -4.17601,-11.56629 -5.32152,-15.64399c-0.9778,4.8959 -2.32814,9.70995 -4.03923,14.40016zM777.22581,502.4462l28.80033,-75.3989h10.69433l30.6853,75.3989h-11.29701l-8.74525,-22.82484h-31.36492l-8.23233,22.82484z" id="CompoundPath 1" fill="#ffffff" fill-rule="evenodd" stroke="none" stroke-width="1" stroke-miterlimit="10"/><path d="M877.97567,502.45902v-75.41173h9.92496v66.5126h36.91725v8.89912z" id="Path 1" fill="#ffffff" fill-rule="evenodd" stroke="none" stroke-width="1" stroke-miterlimit="10"/><path d="M994.77986,472.87649v-8.89912h31.76243v27.97966c-4.54286,3.71229 -9.63431,6.69709 -15.0926,8.84783c-5.09861,1.94027 -10.50925,2.93113 -15.96456,2.92363c-6.98409,0.09041 -13.88367,-1.53431 -20.09355,-4.73167c-5.86835,-3.05452 -10.62781,-7.87678 -13.60514,-13.78466c-3.12729,-6.23504 -4.70632,-13.13177 -4.60344,-20.10637c-0.05435,-7.09522 1.50212,-14.11027 4.55214,-20.51671c2.74776,-6.03387 7.37742,-11.01447 13.19481,-14.195c6.10899,-3.17335 12.91593,-4.76487 19.79862,-4.62908c5.03503,-0.07876 10.03653,0.83179 14.72074,2.68c4.00533,1.49324 7.54446,4.01929 10.25835,7.3219c2.73169,3.67632 4.66642,7.88207 5.68056,12.34849l-8.97606,2.47483c-0.84432,-3.24441 -2.26457,-6.31077 -4.1931,-9.053c-1.8842,-2.3506 -4.35741,-4.16016 -7.16803,-5.24458c-3.2648,-1.37695 -6.77952,-2.06243 -10.32247,-2.0132c-4.02629,-0.09498 -8.03025,0.62468 -11.77146,2.11579c-3.05114,1.1905 -5.79481,3.05322 -8.02716,5.44975c-1.97514,2.20207 -3.56599,4.72055 -4.70602,7.45013c-1.93915,4.82442 -2.91075,9.98306 -2.85952,15.18236c-0.19749,5.81149 0.97536,11.5879 3.42373,16.86217c2.16258,4.37459 5.70424,7.91625 10.07883,10.07883c4.36056,2.20463 9.18059,3.34702 14.06677,3.33397c4.31391,-0.00142 8.58636,-0.84197 12.57931,-2.47483c3.37516,-1.26028 6.52024,-3.06675 9.30946,-5.34717v-14.05395z" id="Path 1" fill="#ffffff" fill-rule="evenodd" stroke="none" stroke-width="1" stroke-miterlimit="10"/><path d="M1084.87386,422.43103l6.80898,-14.40016h12.06639l-11.24572,14.40016zM1064.42126,502.4462v-75.3989h54.2154v8.8863h-44.29044v23.0813h41.53351v8.84783h-41.53351v25.64589h46.03436v8.93759z" id="CompoundPath 1" fill="#ffffff" fill-rule="evenodd" stroke="none" stroke-width="1" stroke-miterlimit="10"/><path d="M1167.1715,460.33565h21.32455c3.60102,0.1356 7.19914,-0.33692 10.64304,-1.3977c2.38939,-0.82043 4.43763,-2.41301 5.82162,-4.5265c1.31318,-2.01805 2.00843,-4.37566 2.00038,-6.78334c0.09851,-3.36008 -1.31297,-6.58767 -3.84688,-8.79654c-2.56459,-2.29103 -6.62091,-3.44082 -12.16897,-3.44937h-23.77374zM1157.28502,502.4462v-75.3989h33.24989c6.67648,0 11.75436,0.68389 15.23366,2.05167c3.51701,1.36351 6.46237,3.88811 8.34774,7.1552c2.07787,3.42234 3.15717,7.3576 3.11598,11.36113c0.13528,5.00836 -1.70743,9.86848 -5.12918,13.5282c-3.41945,3.66736 -8.74097,5.99686 -15.96456,6.9885c2.15951,0.97081 4.17464,2.23512 5.98831,3.75712c3.15317,2.98461 5.91893,6.3535 8.23233,10.02754l13.05376,20.51671h-12.48955l-9.92496,-15.69528c-2.89799,-4.52222 -5.28305,-7.98442 -7.1552,-10.38658c-1.406,-1.94157 -3.11638,-3.64329 -5.06506,-5.03942c-1.37302,-0.92259 -2.89598,-1.59946 -4.50085,-2.00038c-1.82696,-0.29287 -3.67696,-0.41734 -5.52669,-0.37187h-11.54065v33.50635z" id="CompoundPath 1" fill="#ffffff" fill-rule="evenodd" stroke="none" stroke-width="1" stroke-miterlimit="10"/><rect x="980.67179" y="333.04349" transform="scale(1.28229,1.28229)" width="7.74" height="58.8" id="Shape 1" fill="#ffffff" fill-rule="nonzero" stroke="none" stroke-width="1" stroke-miterlimit="10"/><path d="M1308.18541,502.45902v-75.41173h54.2154v8.89912h-44.30327v23.09412h41.48222v8.84783h-41.48222v25.67153h46.03436v8.89912z" id="Path 1" fill="#ffffff" fill-rule="evenodd" stroke="none" stroke-width="1" stroke-miterlimit="10"/></g></g></g></svg>