<svg id="Layer_1" data-name="Layer 1" xmlns="http://www.w3.org/2000/svg" viewBox="0 0 327.64 327.64"><defs><style>.cls-1{fill:#141b54;}.cls-2,.cls-3{fill:#fff;}.cls-3{fill-rule:evenodd;}.cls-4{fill:none;stroke:#fff;stroke-miterlimit:3.86;stroke-width:0.63px;}</style></defs><rect class="cls-1" x="-0.36" y="-0.36" width="328.36" height="328.36"/><polygon class="cls-2" points="196.47 88.48 213.32 91.56 209.59 96.61 215.09 100.01 207.25 111.18 210.96 100.38 196.47 88.48"/><path class="cls-2" d="M165.7,63.33l17.91,9.13c2.73,1.85,7.16,1.52,11.55,3.13,8.76,3.22,20.72,12.06,20.72,12.06l15.84,15.42-.53.21L214.91,89.1s-17.19-9.55-19.84-10.54c-3.67-1.38-10.43-1.31-14.22-3.85l-14.06-7.37A10.12,10.12,0,0,0,163.52,77c-14.4,0-39.29.12-48.69,10.61,11.61-15.24,33.08-14.94,44.64-14.94A12.67,12.67,0,0,1,165.7,63.33Z"/><polygon class="cls-2" points="233.18 104.44 227.53 112.82 228.39 107.5 221.39 103.45 233.18 104.44"/><path class="cls-2" d="M181,121.47l-13.51-17.72,19.1,15.39c8.41-2.49,20.05-2.15,31,3.73l8.86-6.59-7.74,10.56c-32.67-12.53-46.48,6.74-29.51,15.71C170.8,136.28,171.76,126.72,181,121.47Z"/><path class="cls-3" d="M26.89,173.62q0,5.69,2.24,8.29a7.11,7.11,0,0,0,5.62,2.61,7.21,7.21,0,0,0,5.63-2.58q2.26-2.61,2.27-8.16,0-5.29-2.36-8a7.18,7.18,0,0,0-5.62-2.69,7,7,0,0,0-5.51,2.67C27.64,167.53,26.89,170.14,26.89,173.62Zm-4,17.34,4.73.71a4.55,4.55,0,0,0,1.65,3.2,8.06,8.06,0,0,0,4.95,1.36,8.59,8.59,0,0,0,5.21-1.36,6.63,6.63,0,0,0,2.49-3.8,31.51,31.51,0,0,0,.35-6.28,10,10,0,0,1-8,3.78,10.8,10.8,0,0,1-9.16-4.3A16.59,16.59,0,0,1,21.89,174a19.11,19.11,0,0,1,1.48-7.6,12.06,12.06,0,0,1,4.3-5.41,11.73,11.73,0,0,1,6.65-1.91,10.26,10.26,0,0,1,8.38,4.14v-3.48h4.49v24.94q0,6.75-1.38,9.54a9.86,9.86,0,0,1-4.33,4.46,14.78,14.78,0,0,1-7.27,1.63,13.63,13.63,0,0,1-8.3-2.34C23.81,196.4,22.79,194.08,22.86,191Z"/><path class="cls-3" d="M54.48,188.57V159.71h4.38v4.37A12.35,12.35,0,0,1,61.94,160a5.48,5.48,0,0,1,3.14-1,9.46,9.46,0,0,1,5,1.58l-1.68,4.54a6.88,6.88,0,0,0-3.56-1.06,4.6,4.6,0,0,0-2.87,1,5.11,5.11,0,0,0-1.81,2.66,19.17,19.17,0,0,0-.81,5.71v15.11Z"/><path class="cls-3" d="M91.78,188.57v-4.24a10.49,10.49,0,0,1-9.11,4.89,11.67,11.67,0,0,1-4.75-1,8,8,0,0,1-3.27-2.44,9.42,9.42,0,0,1-1.49-3.65,24.63,24.63,0,0,1-.3-4.56V159.71h4.87v16a28.49,28.49,0,0,0,.3,5.17,5.13,5.13,0,0,0,1.94,3A6,6,0,0,0,83.65,185a8,8,0,0,0,4.11-1.12,6.27,6.27,0,0,0,2.7-3.07,15.36,15.36,0,0,0,.81-5.65V159.71h4.87v28.86Z"/><path class="cls-3" d="M108.16,174.3q0,5.58,2.25,8.23a6.84,6.84,0,0,0,5.43,2.67,7,7,0,0,0,5.54-2.75c1.55-1.84,2.32-4.7,2.32-8.56,0-3.67-.75-6.43-2.27-8.26a6.73,6.73,0,0,0-5.37-2.74,7,7,0,0,0-5.52,2.93Q108.16,168.73,108.16,174.3Zm-4.4,25.33V159.71h4.43v3.75a10.64,10.64,0,0,1,3.54-3.29,9.74,9.74,0,0,1,4.78-1.12A11.29,11.29,0,0,1,123,161a11.64,11.64,0,0,1,4.24,5.38,19.5,19.5,0,0,1,1.44,7.58,19.23,19.23,0,0,1-1.6,8,11.9,11.9,0,0,1-4.59,5.44,11.75,11.75,0,0,1-6.33,1.87,9.19,9.19,0,0,1-4.38-1,10,10,0,0,1-3.16-2.61v14Z"/><path class="cls-3" d="M137.73,174.14c0,3.69.8,6.47,2.41,8.31a8,8,0,0,0,12.08,0q2.4-2.77,2.4-8.46,0-5.34-2.43-8.09a7.61,7.61,0,0,0-6-2.78,7.7,7.7,0,0,0-6.05,2.75Q137.73,168.6,137.73,174.14Zm-5,0q0-8,4.43-11.88a13.36,13.36,0,0,1,9-3.21,12.83,12.83,0,0,1,9.68,3.92q3.75,3.89,3.75,10.76a19.13,19.13,0,0,1-1.67,8.78,11.65,11.65,0,0,1-4.84,4.94,13.92,13.92,0,0,1-6.92,1.77,12.89,12.89,0,0,1-9.76-3.89Q132.74,181.45,132.73,174.14Z"/><path class="cls-3" d="M173,173.65q0,4.86,1.92,7.2a5.87,5.87,0,0,0,4.67,2.31A5.5,5.5,0,0,0,184,181q1.76-2.14,1.76-7c0-3-.61-5.27-1.81-6.74a5.6,5.6,0,0,0-4.49-2.2,5.78,5.78,0,0,0-4.62,2.17Q172.95,169.41,173,173.65Zm-7.51-13.94h7.08V164a10.66,10.66,0,0,1,3.73-3.54,10.35,10.35,0,0,1,5.21-1.36A10.91,10.91,0,0,1,190,163q3.5,3.93,3.49,11,0,7.23-3.52,11.26a10.94,10.94,0,0,1-8.51,4,9.72,9.72,0,0,1-4.32-.95A14.51,14.51,0,0,1,173,185v14.54h-7.59Z"/><path class="cls-3" d="M218.36,188.57v-4.32a11.14,11.14,0,0,1-4.14,3.64,11.37,11.37,0,0,1-5.38,1.33,10.56,10.56,0,0,1-5.19-1.28,7.48,7.48,0,0,1-3.32-3.58,16,16,0,0,1-1-6.39V159.71h7.6V173a38.56,38.56,0,0,0,.4,7.47,4.24,4.24,0,0,0,1.54,2.18,4.78,4.78,0,0,0,2.81.78,6,6,0,0,0,3.49-1.06,5.51,5.51,0,0,0,2.11-2.66q.57-1.6.57-7.8V159.71h7.59v28.86Z"/><path class="cls-3" d="M232.71,159.71h7v3.94a11.29,11.29,0,0,1,8.95-4.6,9.61,9.61,0,0,1,4.78,1.15,8.8,8.8,0,0,1,3.33,3.45,13.24,13.24,0,0,1,4.08-3.45,10,10,0,0,1,4.67-1.15,10.27,10.27,0,0,1,5.35,1.31,7.8,7.8,0,0,1,3.27,3.78,16.31,16.31,0,0,1,.79,6v18.45h-7.6v-16.5q0-4.29-.78-5.54a3.58,3.58,0,0,0-3.24-1.63,5.07,5.07,0,0,0-3,1,5.37,5.37,0,0,0-2,2.88,20.38,20.38,0,0,0-.62,6v13.86h-7.6V172.75a22.08,22.08,0,0,0-.4-5.43,3.42,3.42,0,0,0-1.27-1.82,3.9,3.9,0,0,0-2.3-.6,5.52,5.52,0,0,0-3.16.95,5.24,5.24,0,0,0-2,2.74,20.82,20.82,0,0,0-.6,6v14h-7.59Z"/><path class="cls-3" d="M298.33,174.71q-1.45.48-4.62,1.17a13.59,13.59,0,0,0-4.13,1.33,3.18,3.18,0,0,0-1.49,2.69,3.76,3.76,0,0,0,1.19,2.77,4.13,4.13,0,0,0,3,1.17,6.54,6.54,0,0,0,3.92-1.36A4.78,4.78,0,0,0,298,180a15.13,15.13,0,0,0,.29-3.72Zm-10.16-6.2-6.89-1.25a10.77,10.77,0,0,1,4-6.19q2.84-2,8.43-2,5.09,0,7.57,1.23a7.41,7.41,0,0,1,3.49,3.07q1,1.85,1,6.82l-.08,8.91a31.77,31.77,0,0,0,.36,5.63,17.32,17.32,0,0,0,1.37,3.86h-7.51c-.2-.51-.44-1.26-.73-2.26-.13-.45-.22-.75-.27-.89a13.87,13.87,0,0,1-4.16,2.85,12,12,0,0,1-4.73.95,9.8,9.8,0,0,1-7-2.42,8.05,8.05,0,0,1-2.54-6.11,8.14,8.14,0,0,1,1.16-4.35,7.45,7.45,0,0,1,3.24-2.94,25.8,25.8,0,0,1,6.06-1.79,39.82,39.82,0,0,0,7.37-1.88V169a3.93,3.93,0,0,0-1.08-3.12c-.72-.63-2.08-.95-4.08-.95a5.37,5.37,0,0,0-3.16.81A5.5,5.5,0,0,0,288.17,168.51Z"/><line class="cls-4" x1="16.35" y1="212.84" x2="307.66" y2="212.84"/><path class="cls-3" d="M40.64,249.2H52.56l-3.67-9.78q-1.68-4.47-2.49-7.33a45.4,45.4,0,0,1-1.9,6.75ZM30.51,263.71,44,228.38h5l14.38,35.33h-5.3L54,253H39.3l-3.86,10.7Z"/><polygon class="cls-3" points="77.71 263.71 77.71 228.38 82.36 228.38 82.36 259.54 99.67 259.54 99.67 263.71 77.71 263.71"/><path class="cls-3" d="M132.45,249.85v-4.14l14.88,0v13.11a26.43,26.43,0,0,1-7.07,4.15,21.16,21.16,0,0,1-7.48,1.37,20,20,0,0,1-9.42-2.22,14.76,14.76,0,0,1-6.37-6.45,20.42,20.42,0,0,1-2.16-9.43A22,22,0,0,1,117,236.6a14.39,14.39,0,0,1,6.19-6.66,19.28,19.28,0,0,1,9.27-2.16A17.94,17.94,0,0,1,139.3,229a11.36,11.36,0,0,1,4.84,3.44,15.24,15.24,0,0,1,2.66,5.79l-4.19,1.16a13.06,13.06,0,0,0-2-4.25,8,8,0,0,0-3.35-2.45,12.08,12.08,0,0,0-4.84-.94,14.22,14.22,0,0,0-5.52,1,10.39,10.39,0,0,0-3.76,2.56,12.23,12.23,0,0,0-2.2,3.49,18.52,18.52,0,0,0-1.35,7.11,17.46,17.46,0,0,0,1.61,7.91,10.47,10.47,0,0,0,4.72,4.72,14.49,14.49,0,0,0,6.57,1.54,15.73,15.73,0,0,0,5.9-1.15,15.37,15.37,0,0,0,4.36-2.51v-6.58Z"/><path class="cls-3" d="M174.67,226.21l3.19-6.75h5.65l-5.27,6.75Zm-9.59,37.5V228.38h25.41v4.17H169.73v10.82h19.44v4.14H169.73v12H191.3v4.17Z"/><path class="cls-3" d="M213.25,244h10a15.29,15.29,0,0,0,5-.65A5.39,5.39,0,0,0,231,241.2a5.85,5.85,0,0,0,.94-3.18,5.24,5.24,0,0,0-1.83-4.12c-1.19-1.08-3.1-1.62-5.7-1.62H213.25Zm-4.65,19.74V228.38h15.58a20.46,20.46,0,0,1,7.14,1,7.84,7.84,0,0,1,3.91,3.35,10.12,10.12,0,0,1,1.46,5.33,8.94,8.94,0,0,1-2.42,6.34q-2.43,2.58-7.48,3.27a12.52,12.52,0,0,1,2.8,1.76,24.25,24.25,0,0,1,3.86,4.7l6.12,9.62h-5.85l-4.65-7.35q-2-3.18-3.36-4.87a10.6,10.6,0,0,0-2.37-2.36,6.91,6.91,0,0,0-2.11-.94,14.11,14.11,0,0,0-2.59-.17h-5.39v15.69Z"/><rect class="cls-2" x="255.57" y="228.38" width="4.65" height="35.33"/><polygon class="cls-3" points="279.31 263.71 279.31 228.38 304.71 228.38 304.71 232.55 283.96 232.55 283.96 243.37 303.4 243.37 303.4 247.51 283.96 247.51 283.96 259.54 305.53 259.54 305.53 263.71 279.31 263.71"/></svg>