<svg version="1.1" xmlns="http://www.w3.org/2000/svg" xmlns:xlink="http://www.w3.org/1999/xlink" width="3267.66865" height="2245" viewBox="-824.66865,-727,3267.66865,2245">
  <g id="document" fill="#ffffff" fill-rule="nonzero" stroke="#000000" stroke-width="0" stroke-linecap="butt" stroke-linejoin="miter" stroke-miterlimit="10" stroke-dasharray="" stroke-dashoffset="0" font-family="none" font-weight="none" font-size="none" text-anchor="none" style="mix-blend-mode: normal">
    <rect x="-162.06354" y="-161.91537" transform="scale(4.54143,4.49)" width="700" height="2
      00" id="Shape 1 1" vector-effect="non-scaling-stroke"/>
  </g>
  <g fill="none" fill-rule="none" stroke="none" stroke-width="none" stroke-linecap="none" stroke-linejoin="none" stroke-miterlimit="none" stroke-dasharray="" stroke-dashoffset="0" font-family="none" font-weight="none" font-size="none" text-anchor="none" style="mix-blend-mode: normal">
    <g id="stage">
      <g id="layer1 1">
        <path d="M-824.66865,340.14656v-590.77621h1499.20748v590.77621z" id="Path 1" fill="none" fill-rule="nonzero" stroke="none" stroke-width="1" stroke-linecap="round" stroke-linejoin="round" stroke-miterlimit="10"/>
        <rect x="-127.38451" y="-432.63947" transform="scale(5.8289,1.67952)" width="546.47" height="546.47" id="Shape 1" fill="#1e3a8a" fill-rule="nonzero" stroke="none" stroke-width="1" stroke-linecap="butt" stroke-linejoin="miter" stroke-miterlimit="10"/>
        <path d="M195.71439,-319.44674l80.59485,14.6535l-17.87166,24.0409l26.26156,16.199l-37.43853,53.20482l17.72799,-51.45899z" id="Path 1" fill="#ffffff" fill-rule="nonzero" stroke="none" stroke-width="1" stroke-linecap="butt" stroke-linejoin="miter" stroke-miterlimit="10"/>
        <path d="M48.57491,-439.2792l85.62305,43.50259c13.07332,8.81499 34.24922,7.24089 55.224,14.91108c41.92081,15.369 99.09861,57.44059 99.09861,57.44059l75.71032,73.43924l-2.52847,1.00171l-77.80778,-67.54349c0,0 -82.20387,-45.44876 -94.81746,-50.19969c-17.58432,-6.55401 -49.90847,-6.23918 -68.00999,-18.3455l-67.2342,-35.05965c-13.17428,11.41348 -19.14862,29.01471 -15.63052,46.04978c-68.95815,0 -187.88225,0.54378 -232.73379,50.51451c55.51131,-72.60926 158.02912,-71.17826 213.42549,-71.17826c3.18932,-19.23272 12.18261,-34.11519 29.68074,-44.53291z" id="Path 1" fill="#ffffff" fill-rule="nonzero" stroke="none" stroke-width="1" stroke-linecap="butt" stroke-linejoin="miter" stroke-miterlimit="10"/>
        <path d="M371.24163,-243.46031l-27.00861,39.92508l4.10876,-25.35743l-33.50217,-19.26135z" id="Path 1" fill="#ffffff" fill-rule="nonzero" stroke="none" stroke-width="1" stroke-linecap="butt" stroke-linejoin="miter" stroke-miterlimit="10"/>
        <path d="M121.90043,-162.32225l-64.59081,-84.40075l91.3121,73.29613c40.22559,-11.87735 95.88057,-10.246 148.26004,17.7731l42.3518,-31.48214l-37.00754,50.31417c-156.19023,-59.70157 -222.2464,32.11177 -141.10563,74.84163c-88.15151,-29.82217 -83.52557,-75.41403 -39.21994,-100.34216z" id="Path 1" fill="#ffffff" fill-rule="nonzero" stroke="none" stroke-width="1" stroke-linecap="butt" stroke-linejoin="miter" stroke-miterlimit="10"/>
        <path d="M482.57198,-423.1271c0,18.03067 3.582,31.18641 10.74598,39.46715c6.58033,8.06172 16.52229,12.65428 26.95114,12.44975c10.3661,0.13368 20.24241,-4.38575 26.89368,-12.30665c7.24061,-8.29983 10.86091,-21.24567 10.86091,-38.83751c0,-16.82864 -3.75439,-29.51689 -11.26317,-38.06477c-6.54944,-8.09488 -16.42759,-12.79892 -26.86495,-12.79319c-10.30752,-0.07447 -20.07266,4.59361 -26.4627,12.6501c-7.24061,8.37616 -10.86091,20.85453 -10.86091,37.43511zM463.32116,-340.55804l22.61253,3.37717c0.40863,5.96083 3.26718,11.48992 7.90145,15.28315c5.74652,4.29302 13.64796,6.46814 23.6469,6.46814c10.74598,0 19.07842,-2.17513 24.93987,-6.46814c5.97042,-4.4794 10.17878,-10.89883 11.89529,-18.14517c1.20676,-4.72232 1.75268,-14.71075 1.66649,-29.8794c-9.16006,11.57436 -23.18902,18.26542 -37.98445,18.11653c-18.86773,0 -33.47344,-6.81159 -43.81717,-20.43477c-10.51893,-14.17071 -15.9802,-31.43735 -15.51559,-49.05489c-0.18524,-12.48465 2.2008,-24.87461 7.01074,-36.40479c4.16746,-10.41315 11.32293,-19.37228 20.57252,-25.75811c9.42979,-6.14857 20.51071,-9.30217 31.77822,-9.04397c15.80191,-0.26746 30.76939,7.04857 40.22559,19.66202v-16.57105h21.43449v118.83075c0,21.40786 -2.19325,36.55744 -6.57977,45.44876c-4.43875,9.09288 -11.69019,16.52663 -20.68745,21.20752c-10.73511,5.49901 -22.70143,8.17842 -34.7664,7.78467c-16.37756,0 -29.60411,-3.71109 -39.67967,-11.13323c-10.07557,-7.42214 -14.9601,-18.51722 -14.65361,-33.28521z" id="CompoundPath 1" fill="#ffffff" fill-rule="evenodd" stroke="none" stroke-width="1" stroke-linecap="butt" stroke-linejoin="miter" stroke-miterlimit="10"/>
        <path d="M614.54067,-351.80575v-137.37661h20.91731v20.83545c5.34425,-9.73084 10.25752,-16.17037 14.73981,-19.26135c4.39269,-3.06696 9.63417,-4.69725 14.9984,-4.66508c8.51935,0.20166 16.80735,2.80137 23.90549,7.49847l-7.93019,21.35061c-5.11465,-3.18954 -11.00504,-4.93094 -17.03841,-5.03714c-4.96861,-0.04562 -9.80389,1.6002 -13.70544,4.66508c-4.16094,3.1989 -7.18217,7.64277 -8.61978,12.67871c-2.66443,8.81583 -3.97222,17.98294 -3.8789,27.18912v72.12271z" id="Path 1" fill="#ffffff" fill-rule="evenodd" stroke="none" stroke-width="1" stroke-linecap="butt" stroke-linejoin="miter" stroke-miterlimit="10"/>
        <path d="M792.8837,-351.80575v-20.32029c-9.42711,14.80839 -25.96019,23.60745 -43.55857,23.1823c-7.82149,0.06064 -15.56724,-1.52925 -22.72746,-4.66508c-6.14776,-2.46049 -11.54509,-6.4754 -15.65925,-11.64839c-3.5541,-5.22498 -5.97151,-11.13281 -7.09695,-17.3438c-1.13487,-7.19244 -1.60615,-14.47325 -1.40789,-21.7513v-85.05902h23.24465v76.24401c-0.26928,8.22132 0.21156,16.45002 1.43663,24.58469c1.24542,5.79655 4.55146,10.94971 9.30935,14.5104c5.12816,3.58747 11.29319,5.40663 17.5556,5.18025c6.91255,0.01917 13.70218,-1.81991 19.65307,-5.32334c5.84102,-3.28468 10.39711,-8.4381 12.92965,-14.62488c2.58592,-6.22011 3.8789,-15.18775 3.8789,-26.90291v-73.6682h23.24465v137.37661z" id="Path 1" fill="#ffffff" fill-rule="evenodd" stroke="none" stroke-width="1" stroke-linecap="butt" stroke-linejoin="miter" stroke-miterlimit="10"/>
        <path d="M871.20868,-419.89302c0,17.68723 3.57241,30.7571 10.71725,39.20958c6.19222,7.98012 15.73381,12.6689 25.85931,12.70733c10.38768,-0.03701 20.17161,-4.86753 26.49143,-13.0794c7.39384,-8.81499 11.10034,-22.40955 11.1195,-40.78368c0,-17.51551 -3.6203,-30.63307 -10.86091,-39.35267c-6.04102,-8.13244 -15.55986,-12.97388 -25.71564,-13.0794c-9.90317,0 -18.69533,4.66508 -26.3765,13.99524c-7.68117,9.33016 -11.426,22.79115 -11.23443,40.38299zM850.1477,-299.25921v-190.1521h21.20464v17.85896c4.38433,-6.42239 10.16971,-11.7742 16.92348,-15.6552c7.06919,-3.72657 14.99211,-5.55156 22.98605,-5.29473c11.02761,-0.20821 21.85548,2.94752 31.03116,9.04397c9.19962,6.36795 16.26672,15.34173 20.28519,25.75811c4.66341,11.46814 6.98804,23.74632 6.83835,36.11861c0.20386,13.07359 -2.39182,26.04031 -7.61413,38.03614c-4.51622,10.65678 -12.18301,19.69119 -21.98041,25.90122c-9.07142,5.7286 -19.60085,8.74794 -30.34159,8.70051c-7.28417,0.11792 -14.48303,-1.57394 -20.94604,-4.92266c-5.85492,-3.04125 -11.00372,-7.27288 -15.11333,-12.42114v66.91385z" id="CompoundPath 1" fill="#ffffff" fill-rule="evenodd" stroke="none" stroke-width="1" stroke-linecap="butt" stroke-linejoin="miter" stroke-miterlimit="10"/>
        <path d="M1012.60163,-420.66577c0,17.59185 3.831,30.79525 11.49304,39.61026c7.18058,8.48647 17.8223,13.29227 28.96242,13.0794c11.09614,0.1662 21.66708,-4.69845 28.73257,-13.22249c7.66202,-8.79591 11.49304,-22.20921 11.49304,-40.2399c0,-17.00035 -3.831,-29.86032 -11.49304,-38.57993c-7.05796,-8.53037 -17.63676,-13.38812 -28.73257,-13.19388c-11.13622,-0.22407 -21.77885,4.5716 -28.96242,13.05078c-7.66202,8.73866 -11.49304,21.90392 -11.49304,39.49578zM988.69614,-420.66577c0,-25.47191 7.06822,-44.33258 21.20464,-56.58199c11.97354,-10.22662 27.33162,-15.66247 43.09885,-15.25452c18.86773,0 34.28752,6.21057 46.25943,18.6317c11.97192,12.42114 17.96742,29.50735 17.98659,51.25865c0,17.68723 -2.67213,31.62524 -8.01638,41.814c-5.16204,9.9953 -13.23379,18.20506 -23.15844,23.55437c-10.09625,5.57036 -21.4729,8.43051 -33.01372,8.29983c-19.15505,0 -34.70894,-6.17242 -46.66168,-18.51722c-11.95274,-12.34481 -17.88122,-30.07974 -17.78547,-53.20482z" id="CompoundPath 1" fill="#ffffff" fill-rule="evenodd" stroke="none" stroke-width="1" stroke-linecap="butt" stroke-linejoin="miter" stroke-miterlimit="10"/>
        <path d="M1181.11813,-423.01262c0,15.45486 3.06481,26.90291 9.19442,34.34415c5.31722,6.94228 13.58769,11.00838 22.35393,10.99013c8.21695,0.11316 16.01232,-3.61566 21.06098,-10.07429c5.74652,-6.84021 8.38991,-17.94482 8.38991,-33.39969c0,-14.31006 -2.87326,-25.09985 -8.61978,-32.11177c-5.10354,-6.65825 -13.05349,-10.53815 -21.46323,-10.47498c-8.64466,-0.21571 -16.89345,3.60667 -22.29647,10.33186c-5.74652,6.81159 -8.61978,16.94312 -8.61978,30.39458zM1145.20242,-489.41131h33.84697v20.26305c4.47908,-6.97648 10.60513,-12.75427 17.84292,-16.82864c7.58209,-4.34107 16.19517,-6.57487 24.93987,-6.46814c15.67749,-0.13511 30.58507,6.75878 40.59912,18.7748c11.09077,12.51652 16.64572,29.94619 16.66489,52.28897c0,22.8961 -5.60285,40.75506 -16.80856,53.57687c-10.0866,12.12537 -25.13626,19.05794 -40.94391,18.86067c-7.15251,0.09107 -14.23044,-1.45609 -20.68745,-4.52198c-7.29146,-3.99002 -13.81038,-9.2429 -19.25082,-15.51211v69.2607h-36.31796z" id="CompoundPath 1" fill="#ffffff" fill-rule="evenodd" stroke="none" stroke-width="1" stroke-linecap="butt" stroke-linejoin="miter" stroke-miterlimit="10"/>
        <path d="M1398.13521,-351.80575v-20.57786c-5.00131,7.36178 -11.80512,13.33119 -19.76801,17.3438c-7.94111,4.09972 -16.77183,6.19311 -25.71564,6.09609c-8.66482,0.13909 -17.2179,-1.96123 -24.82494,-6.09609c-7.08258,-3.78357 -12.67972,-9.83267 -15.8891,-17.17207c-3.27551,-7.32676 -4.91327,-17.45827 -4.91327,-30.39458v-87.00518h36.31796v63.39357c0,19.3472 0.64168,31.21503 1.92508,35.60343c1.26765,4.1601 3.8595,7.79655 7.38426,10.36048c3.9746,2.62789 8.68017,3.9399 13.44684,3.74924c5.94301,0.06927 11.76271,-1.68979 16.66489,-5.03714c4.61206,-3.08212 8.13892,-7.52597 10.08513,-12.70733c1.80058,-5.07529 2.70086,-17.47736 2.70086,-37.20616v-57.95575h36.31796v137.37661z" id="Path 1" fill="#ffffff" fill-rule="evenodd" stroke="none" stroke-width="1" stroke-linecap="butt" stroke-linejoin="miter" stroke-miterlimit="10"/>
        <path d="M1466.7773,-489.41131h33.47344v18.7748c11.95274,-14.57717 26.2041,-21.86577 42.75405,-21.86577c8.00676,-0.2129 15.93042,1.6616 22.98605,5.43782c6.73109,3.89245 12.23485,9.58284 15.8891,16.42795c5.31291,-6.74149 11.9516,-12.33163 19.50942,-16.42795c6.8916,-3.60926 14.56793,-5.4766 22.35393,-5.43782c8.94209,-0.29018 17.79399,1.85722 25.60071,6.21057c7.0437,4.12676 12.5344,10.44051 15.63052,17.97344c2.49973,5.89575 3.73523,15.369 3.76396,28.47703v88.03551h-36.5191v-78.70533c0,-13.62318 -1.25467,-22.42865 -3.76396,-26.41638c-3.38717,-5.17048 -9.30016,-8.13181 -15.48685,-7.75606c-5.16126,0.01686 -10.18671,1.64875 -14.36628,4.66508c-4.60724,3.41298 -7.94312,8.25624 -9.48175,13.76628c-1.98255,5.95298 -2.87326,15.42625 -2.87326,28.36255v66.08387h-36.5191v-75.47127c0,-13.3656 -0.63212,-22.00887 -1.92508,-25.75811c-1.0238,-3.4454 -3.15342,-6.46145 -6.06258,-8.58603c-3.27793,-2.07577 -7.12628,-3.07661 -11.00458,-2.86201c-5.3825,-0.06059 -10.65528,1.51704 -15.11333,4.52198c-4.596,3.16799 -8.00268,7.76965 -9.68288,13.0794c-1.92508,5.72403 -2.87326,15.14004 -2.87326,28.36255v66.71351h-36.28923z" id="Path 1" fill="#ffffff" fill-rule="evenodd" stroke="none" stroke-width="1" stroke-linecap="butt" stroke-linejoin="miter" stroke-miterlimit="10"/>
        <path d="M1780.56565,-417.94685c-7.26653,2.22029 -14.64104,4.07342 -22.09534,5.5523c-10.07557,2.17513 -16.66489,4.29302 -19.76801,6.35366c-4.42383,2.77549 -7.11286,7.61407 -7.12568,12.82183c-0.02201,5.00508 2.06223,9.79042 5.74652,13.19388c3.83758,3.71032 9.02068,5.71347 14.36628,5.5523c6.78373,-0.07415 13.35912,-2.34442 18.73363,-6.46814c4.13857,-2.93726 7.17263,-7.16828 8.61978,-12.02045c1.18424,-5.83688 1.65694,-11.79479 1.40789,-17.74448zM1731.97889,-447.4542l-32.95626,-5.95298c3.70651,-13.30835 10.05639,-23.12505 19.10715,-29.53597c9.05076,-6.41091 22.49759,-9.55913 40.22559,-9.55913c16.20516,0 28.26327,1.90802 36.1743,5.72403c6.99686,2.96276 12.85021,8.0907 16.69362,14.62488c3.27551,5.72403 4.88454,16.71416 4.91327,32.51246l-0.40225,42.44364c-0.23076,8.96182 0.33655,17.92638 1.69522,26.78843c1.4266,6.37085 3.63653,12.54214 6.57977,18.37412h-35.82951c-0.94818,-2.4041 -2.09747,-5.98161 -3.47664,-10.73255c-0.60339,-2.14651 -1.03437,-3.57751 -1.29297,-4.26441c-5.73833,5.7164 -12.48924,10.32555 -19.91167,13.59456c-7.14921,3.02704 -14.84437,4.56592 -22.61253,4.52198c-14.13642,0 -25.29422,-3.81601 -33.47344,-11.44805c-8.04293,-7.52501 -12.46691,-18.11977 -12.15387,-29.10667c-0.12872,-7.29092 1.80279,-14.47102 5.57412,-20.72097c3.66245,-6.08882 9.06446,-10.95155 15.51559,-13.96663c9.24179,-4.06778 18.96378,-6.95275 28.9337,-8.58603c16.97138,-3.18636 28.73257,-6.16286 35.28358,-8.92947v-3.63476c0,-6.98331 -1.72395,-11.94413 -5.17186,-14.88247c-3.4479,-2.93834 -9.98936,-4.43611 -19.62434,-4.49336c-5.32305,-0.31497 -10.61065,1.0468 -15.11333,3.89234c-4.21389,3.43915 -7.24693,8.10095 -8.67723,13.33698z" id="CompoundPath 1" fill="#ffffff" fill-rule="evenodd" stroke="none" stroke-width="1" stroke-linecap="butt" stroke-linejoin="miter" stroke-miterlimit="10"/>
        <path d="M432.17507,-236.35217h1392.98353" id="Path 1" fill="none" fill-rule="nonzero" stroke="#ffffff" stroke-width="0.63" stroke-linecap="butt" stroke-linejoin="miter" stroke-miterlimit="3.86"/>
        <path d="M548.36956,-63.14317h56.94795l-17.52687,-46.59356c-5.38255,-14.17648 -9.35724,-25.81536 -11.92401,-34.91656c-2.19098,10.92739 -5.21671,21.6721 -9.05076,32.14041zM499.86899,5.94581l64.53334,-168.28633h23.96296l68.75703,168.28633h-25.31339l-19.59561,-50.94382h-70.27986l-18.4463,50.94382z" id="CompoundPath 1" fill="#ffffff" fill-rule="evenodd" stroke="none" stroke-width="1" stroke-linecap="butt" stroke-linejoin="miter" stroke-miterlimit="10"/>
        <path d="M725.62077,5.97443v-168.31494h22.23901v148.45258h82.72106v19.86236z" id="Path 1" fill="#ffffff" fill-rule="evenodd" stroke="none" stroke-width="1" stroke-linecap="butt" stroke-linejoin="miter" stroke-miterlimit="10"/>
        <path d="M987.34572,-60.05219v-19.86236h71.17056v62.44911c-10.17926,8.28563 -21.58776,14.94755 -33.81823,19.74788c-11.42456,4.33057 -23.54823,6.54213 -35.77204,6.52539c-15.64937,0.2018 -31.10934,-3.42451 -45.02394,-10.56082c-13.1493,-6.81755 -23.8139,-17.58053 -30.48525,-30.76663c-7.00735,-13.91628 -10.54554,-29.30941 -10.315,-44.87635c-0.12178,-15.83614 3.36582,-31.49335 10.20006,-45.7922c6.15695,-13.46729 16.53068,-24.58371 29.56581,-31.68248c13.68852,-7.08273 28.94094,-10.63493 44.36308,-10.33186c11.28207,-0.17579 22.48901,1.8565 32.98499,5.98161c8.97482,3.33284 16.90497,8.97084 22.98605,16.34209c6.12092,8.20535 10.45613,17.59236 12.72853,27.56119l-20.11279,5.52368c-1.89187,-7.24134 -5.07426,-14.08532 -9.39554,-20.20581c-4.22194,-5.24642 -9.76372,-9.28525 -16.0615,-11.70564c-7.31548,-3.07329 -15.19096,-4.60323 -23.12972,-4.49336c-9.02177,-0.21199 -17.99351,1.39426 -26.3765,4.72232c-6.83675,2.65712 -12.98453,6.81462 -17.98659,12.16355c-4.42573,4.91491 -7.99036,10.536 -10.54485,16.6283c-4.34509,10.76786 -6.52218,22.28165 -6.40737,33.88623c-0.44251,12.97093 2.18551,25.86358 7.67159,37.63546c4.84571,9.76384 12.7816,17.66867 22.5838,22.49542c9.77077,4.9206 20.57111,7.47036 31.51962,7.44123c9.66624,-0.00317 19.23959,-1.87923 28.18665,-5.52368c7.56278,-2.81287 14.60998,-6.84482 20.85985,-11.9346v-31.36766z" id="Path 1" fill="#ffffff" fill-rule="evenodd" stroke="none" stroke-width="1" stroke-linecap="butt" stroke-linejoin="miter" stroke-miterlimit="10"/>
        <path d="M1189.22072,-172.64376l15.257,-32.14041h27.03735l-25.19846,32.14041zM1143.39228,5.94581v-168.28633h121.48129v19.83375h-99.24228v51.51622h93.06478v19.74788h-93.06478v57.24025h103.14991v19.94822z" id="CompoundPath 1" fill="#ffffff" fill-rule="evenodd" stroke="none" stroke-width="1" stroke-linecap="butt" stroke-linejoin="miter" stroke-miterlimit="10"/>
        <path d="M1373.62633,-88.04267h47.78226c8.06888,0.30266 16.13121,-0.752 23.84803,-3.1196c5.35395,-1.83115 9.94345,-5.3857 13.04459,-10.1029c2.94247,-4.50418 4.50033,-9.76624 4.48227,-15.14004c0.22073,-7.4995 -2.94199,-14.70333 -8.61978,-19.6334c-5.74652,-5.11346 -14.83558,-7.67973 -27.2672,-7.69881h-53.27018zM1351.47352,5.94581v-168.28633h74.50354c14.9601,0 26.3382,1.5264 34.13429,4.57922c7.88062,3.04328 14.48032,8.67806 18.7049,15.97003c4.65591,7.63847 7.07433,16.42177 6.98201,25.35743c0.30312,11.1784 -3.82586,22.02594 -11.49304,30.19424c-7.66202,8.18536 -19.58603,13.38468 -35.77204,15.59797c4.83885,2.16678 9.35418,4.98867 13.41811,8.3857c7.06536,6.66151 13.26264,14.18067 18.4463,22.38094l29.24975,45.7922h-27.98551l-22.23901,-35.03104c-6.49356,-10.09337 -11.83782,-17.82081 -16.03277,-23.1823c-3.15044,-4.33349 -6.98293,-8.13163 -11.34936,-11.24771c-3.07654,-2.05916 -6.48907,-3.5699 -10.08513,-4.46474c-4.0937,-0.65365 -8.23904,-0.9315 -12.38374,-0.82998h-25.85931v74.78438z" id="CompoundPath 1" fill="#ffffff" fill-rule="evenodd" stroke="none" stroke-width="1" stroke-linecap="butt" stroke-linejoin="miter" stroke-miterlimit="10"/>
        <rect x="548.52277" y="-56.71249" transform="scale(2.87326,2.86201)" width="7.74" height="58.8" id="Shape 1" fill="#ffffff" fill-rule="nonzero" stroke="none" stroke-width="1" stroke-linecap="butt" stroke-linejoin="miter" stroke-miterlimit="10"/>
        <path d="M1689.59836,5.97443v-168.31494h121.48129v19.86236h-99.27101v51.54485h92.94985v19.74788h-92.94985v57.29749h103.14991v19.86236z" id="Path 1" fill="#ffffff" fill-rule="evenodd" stroke="none" stroke-width="1" stroke-linecap="butt" stroke-linejoin="miter" stroke-miterlimit="10"/>
      </g>
    </g>
  </g>
</svg>
