<svg id="Layer_1" data-name="Layer 1" xmlns="http://www.w3.org/2000/svg" viewBox="0 0 545.53 545.53"><defs><style>.cls-1{fill:#1e3a8a;}.cls-2,.cls-3{fill:#fff;}.cls-3{fill-rule:evenodd;}.cls-4{fill:none;stroke:#fff;stroke-miterlimit:3.86;stroke-width:0.63px;}</style></defs><rect class="cls-1" x="-0.47" y="-0.47" width="546.47" height="546.47"/><polygon class="cls-2" points="327.11 147.39 355.16 152.51 348.94 160.91 358.08 166.57 345.05 185.16 351.22 167.18 327.11 147.39"/><path class="cls-2" d="M275.9,105.52l29.8,15.2c4.55,3.08,11.92,2.53,19.22,5.21C339.51,131.3,359.41,146,359.41,146l26.35,25.66-.88.35L357.8,148.41s-28.61-15.88-33-17.54c-6.12-2.29-17.37-2.18-23.67-6.41l-23.4-12.25a16.83,16.83,0,0,0-5.44,16.09c-24,0-65.39.19-81,17.65,19.32-25.37,55-24.87,74.28-24.87C266.68,114.36,269.81,109.16,275.9,105.52Z"/><polygon class="cls-2" points="388.2 173.94 378.8 187.89 380.23 179.03 368.57 172.3 388.2 173.94"/><path class="cls-2" d="M301.42,202.29,278.94,172.8l31.78,25.61c14-4.15,33.37-3.58,51.6,6.21l14.74-11-12.88,17.58c-54.36-20.86-77.35,11.22-49.11,26.15C284.39,226.93,286,211,301.42,202.29Z"/><path class="cls-3" d="M44.88,289.08q0,9.45,3.74,13.79A11.79,11.79,0,0,0,58,307.22a12,12,0,0,0,9.36-4.3q3.78-4.35,3.78-13.57,0-8.82-3.92-13.3a12,12,0,0,0-9.35-4.47A11.63,11.63,0,0,0,48.66,276Q44.88,280.39,44.88,289.08Zm-6.7,28.85,7.87,1.18a7.58,7.58,0,0,0,2.75,5.34c2,1.5,4.75,2.26,8.23,2.26,3.74,0,6.64-.76,8.68-2.26a11.14,11.14,0,0,0,4.14-6.34c.42-1.65.61-5.14.58-10.44A16.62,16.62,0,0,1,57.21,314q-9.85,0-15.25-7.14a27.61,27.61,0,0,1-5.4-17.14A31.92,31.92,0,0,1,39,277a19.93,19.93,0,0,1,7.16-9,19.38,19.38,0,0,1,11.06-3.16,17.11,17.11,0,0,1,14,6.87v-5.79h7.46v41.52q0,11.22-2.29,15.88a16.5,16.5,0,0,1-7.2,7.41,24.69,24.69,0,0,1-12.1,2.72q-8.55,0-13.81-3.89T38.18,317.93Z"/><path class="cls-3" d="M90.81,314v-48h7.28v7.28c1.86-3.4,3.57-5.65,5.13-6.73a9,9,0,0,1,5.22-1.63,15.71,15.71,0,0,1,8.32,2.62L114,275a11.56,11.56,0,0,0-5.93-1.76,7.59,7.59,0,0,0-4.77,1.63,8.55,8.55,0,0,0-3,4.43,31.84,31.84,0,0,0-1.35,9.5V314Z"/><path class="cls-3" d="M152.88,314V306.9A17.45,17.45,0,0,1,137.72,315a19.28,19.28,0,0,1-7.91-1.63,13.26,13.26,0,0,1-5.45-4.07,15.81,15.81,0,0,1-2.47-6.06,41.67,41.67,0,0,1-.49-7.6V265.92h8.09v26.64a47.47,47.47,0,0,0,.5,8.59,8.59,8.59,0,0,0,3.24,5.07,10,10,0,0,0,6.11,1.81,13.37,13.37,0,0,0,6.84-1.86,10.36,10.36,0,0,0,4.5-5.11q1.35-3.26,1.35-9.4V265.92h8.09v48Z"/><path class="cls-3" d="M180.14,290.21q0,9.27,3.73,13.7a11.43,11.43,0,0,0,9,4.44,11.67,11.67,0,0,0,9.22-4.57q3.86-4.62,3.87-14.25,0-9.18-3.78-13.75a11.28,11.28,0,0,0-8.95-4.57q-5.17,0-9.18,4.89T180.14,290.21Zm-7.33,42.15V265.92h7.38v6.24a18,18,0,0,1,5.89-5.47,16,16,0,0,1,8-1.85,18.82,18.82,0,0,1,10.8,3.16,19.46,19.46,0,0,1,7.06,9,32.57,32.57,0,0,1,2.38,12.62,32.15,32.15,0,0,1-2.65,13.29,19.9,19.9,0,0,1-7.65,9.05A19.56,19.56,0,0,1,193.46,315a15.26,15.26,0,0,1-7.29-1.72,16.42,16.42,0,0,1-5.26-4.34v23.38Z"/><path class="cls-3" d="M229.35,289.94q0,9.22,4,13.84a12.86,12.86,0,0,0,10.08,4.57,12.72,12.72,0,0,0,10-4.62q4-4.61,4-14.06,0-8.91-4-13.48a12.67,12.67,0,0,0-10-4.61,12.85,12.85,0,0,0-10.08,4.56Q229.35,280.72,229.35,289.94Zm-8.32,0q0-13.35,7.38-19.77a22.16,22.16,0,0,1,15-5.33q9.85,0,16.1,6.51t6.26,17.91q0,9.27-2.79,14.61a19.5,19.5,0,0,1-8.06,8.23A23.17,23.17,0,0,1,243.43,315q-10,0-16.24-6.47T221,289.94Z"/><path class="cls-3" d="M288,289.12q0,8.1,3.2,12a9.76,9.76,0,0,0,7.78,3.84,9.13,9.13,0,0,0,7.33-3.52c2-2.39,2.92-6.27,2.92-11.67,0-5-1-8.77-3-11.22a9.31,9.31,0,0,0-7.47-3.66A9.63,9.63,0,0,0,291,278.5Q288,282.07,288,289.12Zm-12.5-23.2h11.78V273a17.72,17.72,0,0,1,6.21-5.88,17,17,0,0,1,8.68-2.26,18.16,18.16,0,0,1,14.13,6.56q5.79,6.56,5.8,18.27,0,12-5.85,18.72A18.21,18.21,0,0,1,302,315a16.25,16.25,0,0,1-7.2-1.58A24.36,24.36,0,0,1,288.1,308v24.2H275.46Z"/><path class="cls-3" d="M363.53,314v-7.19a18.26,18.26,0,0,1-6.88,6.06A19,19,0,0,1,347.7,315a17.45,17.45,0,0,1-8.64-2.13,12.45,12.45,0,0,1-5.53-6q-1.71-3.84-1.71-10.62v-30.4h12.64V288q0,10.14.67,12.44a7,7,0,0,0,2.57,3.62,7.89,7.89,0,0,0,4.68,1.31,10.05,10.05,0,0,0,5.8-1.76,9.25,9.25,0,0,0,3.51-4.44q.94-2.66.94-13V265.92h12.64v48Z"/><path class="cls-3" d="M387.42,265.92h11.65v6.56q6.24-7.64,14.88-7.64a16,16,0,0,1,8,1.9,14.52,14.52,0,0,1,5.53,5.74,22,22,0,0,1,6.79-5.74,16.54,16.54,0,0,1,7.78-1.9,17.1,17.1,0,0,1,8.91,2.17,13,13,0,0,1,5.44,6.28c.87,2.06,1.3,5.37,1.31,9.95V314H445V286.5q0-7.14-1.31-9.23a6,6,0,0,0-5.39-2.71,8.57,8.57,0,0,0-5,1.63A9,9,0,0,0,430,281c-.69,2.08-1,5.39-1,9.91V314H416.29V287.63c0-4.67-.22-7.69-.67-9a5.74,5.74,0,0,0-2.11-3,6.47,6.47,0,0,0-3.83-1,9.2,9.2,0,0,0-5.26,1.58,8.76,8.76,0,0,0-3.37,4.57c-.67,2-1,5.29-1,9.91V314H387.42Z"/><path class="cls-3" d="M496.63,290.89a78.53,78.53,0,0,1-7.69,1.94q-5.26,1.14-6.88,2.22a5.31,5.31,0,0,0-2.48,4.48,6.25,6.25,0,0,0,2,4.61,6.88,6.88,0,0,0,5,1.94,10.88,10.88,0,0,0,6.52-2.26,7.93,7.93,0,0,0,3-4.2,25.86,25.86,0,0,0,.49-6.2Zm-16.91-10.31-11.47-2.08c1.29-4.65,3.5-8.08,6.65-10.32s7.83-3.34,14-3.34q8.46,0,12.59,2a12.32,12.32,0,0,1,5.81,5.11c1.14,2,1.7,5.84,1.71,11.36l-.14,14.83a53,53,0,0,0,.59,9.36,27.74,27.74,0,0,0,2.29,6.42H499.28c-.33-.84-.73-2.09-1.21-3.75-.21-.75-.36-1.25-.45-1.49a22.89,22.89,0,0,1-6.93,4.75,19.83,19.83,0,0,1-7.87,1.58q-7.38,0-11.65-4a13.43,13.43,0,0,1-4.23-10.17,13.59,13.59,0,0,1,1.94-7.24,12.47,12.47,0,0,1,5.4-4.88,41.63,41.63,0,0,1,10.07-3q8.86-1.67,12.28-3.12v-1.27q0-3.66-1.8-5.2T488,274.56a8.84,8.84,0,0,0-5.26,1.36A9.12,9.12,0,0,0,479.72,280.58Z"/><line class="cls-4" x1="27.34" y1="354.34" x2="512.15" y2="354.34"/><path class="cls-3" d="M67.78,414.86H87.6l-6.1-16.28q-2.81-7.43-4.15-12.2a76.46,76.46,0,0,1-3.15,11.23ZM50.9,439l22.46-58.8H81.7L105.63,439H96.82L90,421.2H65.54L59.12,439Z"/><polygon class="cls-3" points="129.47 439.01 129.47 380.2 137.21 380.2 137.21 432.07 166 432.07 166 439.01 129.47 439.01"/><path class="cls-3" d="M220.56,415.94V409l24.77,0v21.82a44.22,44.22,0,0,1-11.77,6.9A34.87,34.87,0,0,1,221.11,440a33.29,33.29,0,0,1-15.67-3.69,24.6,24.6,0,0,1-10.61-10.75,33.86,33.86,0,0,1-3.59-15.68,36.57,36.57,0,0,1,3.55-16,23.91,23.91,0,0,1,10.29-11.07,32.12,32.12,0,0,1,15.44-3.61A30,30,0,0,1,232,381.29,18.9,18.9,0,0,1,240,387a25.68,25.68,0,0,1,4.43,9.63l-7,1.93a21.83,21.83,0,0,0-3.27-7.06,13.3,13.3,0,0,0-5.59-4.09,20,20,0,0,0-8.05-1.57,23.31,23.31,0,0,0-9.18,1.65,17,17,0,0,0-6.26,4.25,20.58,20.58,0,0,0-3.67,5.81,30.93,30.93,0,0,0-2.23,11.84,28.9,28.9,0,0,0,2.67,13.15,17.34,17.34,0,0,0,7.86,7.86A24.17,24.17,0,0,0,220.68,433a25.94,25.94,0,0,0,9.81-1.93,25.64,25.64,0,0,0,7.26-4.17V415.94Z"/><path class="cls-3" d="M290.82,376.6l5.31-11.23h9.41l-8.77,11.23ZM274.87,439v-58.8h42.28v6.93H282.61v18H315v6.9H282.61v20h35.9V439Z"/><path class="cls-3" d="M355,406.16h16.63a25,25,0,0,0,8.3-1.09,8.87,8.87,0,0,0,4.54-3.53,9.64,9.64,0,0,0,1.56-5.29,8.76,8.76,0,0,0-3-6.86q-3-2.68-9.49-2.69H355ZM347.29,439v-58.8h25.93q7.81,0,11.88,1.6a12.9,12.9,0,0,1,6.51,5.58,16.74,16.74,0,0,1,2.43,8.86,14.86,14.86,0,0,1-4,10.55q-4,4.29-12.45,5.45a20.06,20.06,0,0,1,4.67,2.93,40.43,40.43,0,0,1,6.42,7.82l10.18,16h-9.74l-7.74-12.24q-3.39-5.29-5.58-8.1a17.36,17.36,0,0,0-3.95-3.93,11.13,11.13,0,0,0-3.51-1.56,23.57,23.57,0,0,0-4.31-.29h-9V439Z"/><rect class="cls-2" x="425.45" y="380.21" width="7.74" height="58.8"/><polygon class="cls-3" points="464.97 439.01 464.97 380.2 507.25 380.2 507.25 387.14 472.7 387.14 472.7 405.15 505.05 405.15 505.05 412.05 472.7 412.05 472.7 432.07 508.6 432.07 508.6 439.01 464.97 439.01"/></svg>